<?xml version="1.0" standalone="no"?>
<!DOCTYPE svg PUBLIC "-//W3C//DTD SVG 20010904//EN"
 "http://www.w3.org/TR/2001/REC-SVG-20010904/DTD/svg10.dtd">
<svg version="1.0" xmlns="http://www.w3.org/2000/svg"
 width="692.000000pt" height="692.000000pt" viewBox="0 0 692.000000 692.000000"
 preserveAspectRatio="xMidYMid meet">
<metadata>
Created by potrace 1.14, written by Peter Selinger 2001-2017
</metadata>
<g transform="translate(0.000000,692.000000) scale(0.100000,-0.100000)"
fill="#000000" stroke="none">
<path d="M1530 5992 c-16 -5 -55 -42 -44 -42 3 0 1 -6 -5 -13 -6 -8 -9 -17 -6
-20 3 -4 2 -5 -1 -2 -4 2 -13 -3 -21 -11 -8 -8 -19 -12 -24 -9 -5 4 -10 -2
-10 -12 -3 -53 -4 -631 -1 -650 3 -15 11 -23 24 -23 11 0 26 -7 35 -15 13 -13
13 -18 1 -32 -32 -38 21 -106 77 -97 10 1 26 -3 34 -9 12 -10 13 -9 6 3 -6 12
-5 12 5 3 7 -6 13 -26 14 -44 1 -25 13 -45 53 -85 28 -29 54 -50 57 -47 3 4 6
-1 6 -10 0 -10 5 -17 11 -17 6 0 40 -29 75 -65 35 -36 64 -63 64 -60 0 3 29
-23 65 -57 129 -126 174 -168 181 -168 3 0 37 -31 75 -70 38 -38 76 -70 84
-70 8 0 15 -4 15 -8 0 -5 7 -9 15 -9 8 0 15 5 15 10 0 5 8 3 17 -4 13 -11 15
-11 9 -1 -7 11 -4 11 12 1 10 -7 19 -19 19 -28 0 -44 5 -58 27 -83 12 -15 26
-25 29 -22 3 3 8 -4 12 -15 3 -12 11 -21 16 -21 6 0 37 -27 70 -60 32 -33 62
-60 64 -60 3 0 36 -31 74 -68 62 -62 71 -68 107 -67 44 2 78 -11 68 -26 -7
-13 5 -89 16 -89 7 0 71 -56 176 -155 144 -136 135 -130 187 -130 37 0 48 -4
53 -19 6 -18 -36 -69 -53 -64 -14 4 -57 -24 -84 -53 -14 -16 -31 -29 -37 -29
-7 0 -12 -7 -12 -15 0 -8 -4 -15 -10 -15 -5 0 -33 -24 -63 -52 -48 -48 -53
-57 -52 -94 1 -27 -3 -41 -12 -41 -6 0 -9 5 -6 11 4 6 0 5 -8 -1 -9 -8 -19 -9
-25 -3 -8 8 -86 -40 -85 -54 0 -3 -13 -19 -29 -35 -17 -16 -30 -28 -30 -26 0
1 -19 -16 -43 -39 -24 -22 -42 -43 -40 -45 1 -2 -12 -15 -29 -28 -18 -12 -28
-23 -24 -23 4 0 -7 -12 -25 -27 -19 -16 -52 -46 -74 -68 -22 -22 -59 -57 -83
-77 -23 -21 -40 -38 -37 -38 2 0 -17 -19 -43 -42 -26 -24 -56 -53 -67 -66 -11
-12 -25 -22 -30 -22 -6 0 -19 -13 -30 -29 -11 -17 -21 -28 -23 -26 -6 5 -48
-53 -62 -84 -7 -15 -16 -21 -26 -17 -8 3 -12 2 -9 -4 3 -6 0 -10 -8 -10 -18 0
-57 -34 -57 -49 0 -6 -3 -11 -8 -11 -4 0 -70 -61 -146 -135 -77 -74 -143 -135
-148 -135 -4 0 -8 -7 -8 -15 0 -8 -3 -14 -7 -13 -5 2 -20 -10 -35 -25 -15 -15
-24 -27 -20 -27 4 -1 -5 -8 -20 -16 -16 -8 -28 -21 -28 -29 0 -8 -3 -14 -7
-13 -13 4 -53 -26 -53 -39 0 -7 -4 -13 -9 -13 -14 0 -81 -73 -81 -87 0 -7 15
-15 34 -19 35 -6 52 -27 39 -47 -7 -11 -12 -33 -15 -69 -2 -10 -16 -22 -34
-28 -18 -6 -34 -15 -36 -20 -5 -14 -87 27 -95 47 -4 10 -11 21 -16 24 -10 7
-57 -36 -57 -51 0 -6 -4 -10 -8 -10 -6 0 -9 -710 -3 -742 0 -5 11 -8 23 -8 12
0 32 -10 45 -22 19 -17 35 -21 85 -21 35 0 68 -3 73 -8 6 -4 26 -10 45 -13 19
-2 45 -7 57 -10 13 -2 25 -1 28 4 6 9 24 8 43 -3 6 -5 12 -4 12 2 0 7 8 7 25
1 13 -5 27 -6 29 -1 5 8 35 8 51 0 6 -3 21 -4 35 -2 14 2 39 3 55 2 119 -5
512 -3 508 3 -2 5 6 4 19 0 25 -9 57 -8 82 1 9 4 16 3 16 -1 0 -9 93 -7 116 2
8 3 14 2 14 -3 0 -8 94 -5 116 3 7 3 15 2 18 -1 9 -9 527 -10 554 -1 12 4 22
4 22 0 0 -9 83 -8 98 2 6 3 13 3 15 -1 4 -7 215 -9 242 -3 6 1 12 1 15 0 15
-6 80 -4 80 3 0 4 8 4 18 -1 18 -9 101 -8 127 2 8 3 15 2 15 -2 0 -9 67 -8 76
1 3 3 16 3 28 -1 11 -4 62 -6 111 -5 110 4 103 4 140 0 17 -1 40 1 53 5 12 4
22 4 22 0 0 -9 157 -8 166 0 3 4 16 3 28 -1 23 -8 86 -7 110 2 9 4 16 3 16 -1
0 -4 44 -6 97 -4 120 3 92 3 260 0 138 -3 203 7 203 31 0 5 9 13 20 16 11 3
20 13 20 21 0 8 3 13 8 11 9 -6 8 241 -2 271 -4 12 -12 20 -17 17 -5 -4 -9 -2
-9 4 0 5 6 12 13 14 7 4 6 6 -5 6 -9 1 -18 -5 -21 -11 -3 -7 -4 -3 -4 9 1 12
5 19 9 17 4 -3 8 0 8 5 0 6 6 10 13 8 6 -1 11 4 10 11 -2 6 0 12 5 12 4 0 7
56 6 125 0 69 2 128 6 130 4 2 17 -18 29 -44 24 -54 69 -106 100 -116 12 -3
21 -13 21 -21 0 -8 3 -13 8 -12 4 1 17 -3 28 -10 12 -6 24 -8 28 -5 3 3 6 2 6
-4 0 -6 19 -14 43 -18 61 -11 65 -12 142 -27 46 -10 80 -12 100 -6 17 5 47 9
68 9 24 0 45 7 57 19 10 10 21 16 24 13 3 -4 21 10 40 29 23 24 31 39 26 49
-5 7 -6 17 -4 21 10 16 -73 101 -92 94 -7 -3 -14 -1 -14 5 0 6 -6 9 -14 6 -8
-3 -17 -3 -20 0 -3 3 -63 7 -133 8 -181 4 -231 13 -255 49 -12 18 -9 65 6 94
15 29 112 123 119 116 2 -3 10 2 17 11 7 8 19 15 26 15 8 0 14 5 14 11 0 5 5
7 10 4 6 -3 10 -2 10 4 0 5 10 13 23 17 12 4 29 15 37 24 8 9 21 15 28 13 6
-3 12 0 12 5 0 6 18 13 40 17 22 4 40 11 40 15 0 5 8 8 18 7 20 -1 136 52 129
60 -3 2 6 16 18 29 13 14 22 34 20 45 -2 10 1 19 6 19 6 0 3 7 -5 16 -9 8 -14
20 -11 25 4 5 1 9 -5 9 -7 0 -25 14 -40 30 -15 17 -33 30 -40 30 -6 0 -9 4 -6
9 7 11 -49 26 -79 22 -18 -3 -44 -16 -163 -83 -17 -10 -34 -18 -37 -18 -3 0
-29 -16 -59 -35 -30 -19 -60 -35 -66 -35 -5 0 -10 -5 -10 -11 0 -5 -4 -7 -10
-4 -5 3 -10 2 -10 -2 0 -5 -12 -16 -27 -25 -31 -18 -150 -128 -139 -128 4 0
-5 -12 -19 -28 -14 -15 -28 -37 -31 -49 -4 -13 -10 -23 -15 -23 -5 0 -6 -7 -3
-15 9 -23 -24 -69 -40 -56 -7 6 -17 7 -21 3 -5 -4 -5 -1 -1 6 4 6 3 12 -2 12
-5 0 -12 13 -15 29 -6 26 -10 29 -52 33 -26 2 -48 1 -51 -1 -2 -3 -19 -5 -37
-6 -17 0 -38 -4 -44 -8 -8 -5 -13 -4 -13 3 0 9 -25 9 -98 -1 -4 -1 -17 2 -30
6 -19 6 -20 10 -10 23 11 13 11 14 -2 7 -13 -7 -13 -6 -2 7 7 9 24 19 37 22
14 4 25 11 25 17 0 6 5 7 10 4 6 -3 10 -1 10 4 0 6 7 11 15 11 8 0 15 5 15 12
0 6 3 9 6 5 4 -3 21 1 38 10 17 9 40 18 51 20 11 2 21 7 23 12 2 5 12 7 22 4
11 -3 20 -1 20 5 0 6 9 9 20 7 11 -2 20 1 20 7 0 6 3 9 6 5 6 -6 63 51 65 65
3 20 5 24 12 36 20 31 -120 162 -168 157 -22 -2 -115 -48 -115 -57 0 -5 -4 -7
-9 -3 -5 3 -12 1 -16 -5 -4 -6 -10 -8 -15 -5 -4 3 -11 -2 -14 -11 -3 -8 -10
-12 -16 -9 -5 3 -10 1 -10 -5 0 -6 -4 -9 -8 -6 -5 3 -18 -2 -28 -12 -11 -9
-37 -26 -59 -37 -48 -24 -139 -85 -143 -97 -2 -4 -9 -8 -15 -9 -7 0 -32 -25
-57 -55 -25 -29 -53 -62 -64 -73 -10 -11 -15 -24 -12 -30 3 -5 -3 -12 -14 -16
-11 -4 -18 -10 -15 -15 3 -5 1 -11 -4 -15 -6 -3 -8 -12 -5 -19 8 -21 -11 -28
-40 -15 -32 15 -37 54 -6 46 25 -6 26 -1 1 12 -14 8 -24 6 -40 -8 -12 -11 -30
-18 -39 -16 -9 2 -20 4 -24 4 -3 1 -9 20 -13 44 -3 23 -11 56 -16 72 -5 17
-11 49 -13 70 -2 22 -5 40 -7 40 -1 0 -3 23 -4 50 -2 28 -4 50 -5 50 -1 0 -3
7 -5 16 -6 33 -39 70 -67 76 -15 3 -28 9 -28 14 0 5 -12 9 -26 9 -14 0 -23 4
-20 8 2 4 -10 6 -28 4 -25 -3 -39 -14 -66 -54 -19 -27 -46 -58 -60 -68 -24
-17 -86 -36 -103 -32 -5 2 -6 -2 -3 -7 4 -5 -3 -12 -13 -16 -11 -3 -26 -22
-33 -41 -6 -18 -16 -34 -20 -34 -4 0 -8 -9 -8 -19 0 -11 -6 -26 -13 -33 -8 -7
-20 -30 -26 -51 -7 -20 -17 -37 -22 -37 -6 0 -8 -4 -5 -9 16 -25 -38 -28 -405
-28 -318 0 -391 -3 -415 -15 l-30 -14 0 37 c-1 21 2 36 6 34 9 -6 66 46 63 57
-2 4 6 8 17 8 11 0 20 6 20 14 0 8 9 18 20 21 11 4 18 10 15 15 -3 5 3 11 13
14 10 4 25 17 32 31 7 13 16 23 20 22 4 -1 33 24 64 56 32 31 60 57 62 57 11
0 44 36 44 49 0 8 3 12 6 8 6 -6 21 7 139 119 49 46 54 54 47 80 -5 16 -7 35
-6 42 1 6 2 16 3 21 0 5 12 9 26 9 13 0 23 -4 20 -8 -2 -3 11 -6 29 -5 29 0
79 29 84 47 3 9 132 140 132 134 0 -2 13 8 28 22 37 35 55 69 42 77 -13 8 -13
27 1 62 8 22 12 24 19 13 6 -8 10 -12 10 -8 0 4 13 3 29 -2 16 -4 32 -5 36 -2
4 4 10 7 13 7 4 0 38 30 75 68 37 37 72 67 78 67 5 0 9 4 9 8 0 5 8 17 18 28
9 11 18 38 20 64 1 24 7 49 12 54 7 7 10 6 10 -2 0 -7 3 -11 8 -11 19 3 33 -3
51 -22 19 -21 29 -22 211 -22 130 0 190 -4 190 -11 0 -6 4 -5 9 2 4 8 11 13
15 13 28 -4 47 2 68 22 23 22 28 23 49 10 13 -8 16 -12 7 -9 -31 10 -19 -3 22
-23 22 -11 38 -16 35 -11 -2 4 72 7 165 7 111 -1 170 -5 170 -12 0 -5 5 -3 10
5 6 9 10 10 10 3 0 -7 9 -10 23 -7 12 3 28 6 35 6 6 1 12 5 12 10 0 5 4 7 9 4
5 -4 25 12 43 33 l34 40 0 158 c-1 87 -5 164 -10 172 -6 9 -5 12 0 8 6 -3 10
78 10 214 0 120 -4 219 -8 219 -4 0 -7 3 -7 8 3 19 -2 33 -11 27 -5 -3 -10 0
-10 7 -1 7 -14 24 -31 38 l-30 25 -373 0 c-287 0 -376 -3 -385 -12 -7 -7 -9
-13 -6 -13 3 0 1 -9 -5 -20 -6 -12 -19 -19 -33 -17 -23 2 -48 26 -41 39 9 15
-47 22 -178 23 -114 0 -140 3 -156 18 -10 9 -21 14 -24 11 -4 -3 -9 4 -13 15
-3 12 -10 21 -14 21 -5 0 -45 37 -90 81 -78 78 -84 82 -129 83 -34 1 -47 5
-48 16 -1 8 -3 20 -4 25 -1 6 -2 18 -1 27 2 20 -6 31 -73 96 -27 26 -71 68
-97 94 -27 26 -49 51 -49 56 0 5 -6 9 -12 10 -63 9 -95 16 -109 26 -24 16 -25
21 -11 39 9 10 10 17 2 22 -6 3 -8 10 -6 14 7 10 -78 91 -95 91 -7 0 -10 3 -7
6 6 5 -57 74 -68 74 -3 0 -32 27 -64 60 -32 33 -61 60 -64 60 -2 0 -23 18 -45
41 -23 22 -46 37 -51 34 -6 -4 -9 -1 -8 6 2 7 -2 13 -9 14 -6 0 -15 4 -20 9
-4 5 -3 6 4 2 7 -4 21 2 31 12 17 17 54 18 800 18 651 -1 783 1 787 13 4 11 8
11 21 0 12 -10 88 -13 331 -13 173 -1 320 2 326 6 7 4 8 8 3 8 -5 0 -3 7 4 15
7 8 9 15 6 15 -4 0 -2 9 4 20 6 11 17 20 25 20 8 0 18 8 22 18 7 13 10 673 4
764 -1 12 -12 18 -38 20 -33 3 -39 7 -47 36 -5 17 -14 32 -20 33 -6 0 -217 1
-470 1 -382 1 -460 -2 -467 -13 -11 -20 -42 -57 -34 -41 6 11 3 11 -12 1 -17
-10 -23 -9 -42 10 -11 11 -21 26 -21 31 0 13 79 11 -700 15 -371 2 -686 4
-700 5 -51 5 -66 -1 -88 -35 -17 -26 -28 -34 -45 -31 -12 3 -25 5 -29 5 -5 1
-8 10 -8 20 0 11 -5 23 -11 27 -7 4 -237 7 -513 6 -276 0 -514 3 -531 7 -16 4
-37 6 -45 3z m3798 -557 c-3 -3 -9 2 -12 12 -6 14 -5 15 5 6 7 -7 10 -15 7
-18z m-704 -361 c3 -8 2 -12 -4 -9 -6 3 -10 10 -10 16 0 14 7 11 14 -7z m23
-29 c0 -8 -4 -12 -9 -9 -5 3 -6 10 -3 15 9 13 12 11 12 -6z m43 1 c0 -2 -7 -6
-15 -10 -8 -3 -15 -1 -15 4 0 6 7 10 15 10 8 0 15 -2 15 -4z"/>
<path d="M4757 3013 c-11 -10 -8 -20 7 -26 10 -4 12 0 9 14 -6 21 -7 22 -16
12z"/>
</g>
</svg>
